<mxfile host="Electron" agent="Mozilla/5.0 (Windows NT 10.0; Win64; x64) AppleWebKit/537.36 (KHTML, like Gecko) draw.io/26.0.7 Chrome/128.0.6613.186 Electron/32.2.5 Safari/537.36" version="26.0.7">
  <diagram name="Page-1" id="yXbCglX7f3UGExz6EKFk">
    <mxGraphModel dx="1231" dy="1204" grid="1" gridSize="10" guides="1" tooltips="1" connect="1" arrows="1" fold="1" page="1" pageScale="1" pageWidth="1654" pageHeight="1169" math="0" shadow="0">
      <root>
        <mxCell id="0" />
        <mxCell id="1" parent="0" />
        <mxCell id="MxcCte-MyLLGNrgXoKtf-19" value="" style="rounded=1;whiteSpace=wrap;html=1;fillColor=none;connectable=0;allowArrows=0;" vertex="1" parent="1">
          <mxGeometry x="80" y="40" width="640" height="680" as="geometry" />
        </mxCell>
        <mxCell id="MxcCte-MyLLGNrgXoKtf-3" style="edgeStyle=orthogonalEdgeStyle;rounded=1;orthogonalLoop=1;jettySize=auto;html=1;curved=0;" edge="1" parent="1" source="MxcCte-MyLLGNrgXoKtf-1" target="MxcCte-MyLLGNrgXoKtf-2">
          <mxGeometry relative="1" as="geometry" />
        </mxCell>
        <mxCell id="MxcCte-MyLLGNrgXoKtf-6" style="edgeStyle=orthogonalEdgeStyle;rounded=0;orthogonalLoop=1;jettySize=auto;html=1;startArrow=diamondThin;startFill=1;endArrow=open;endFill=0;" edge="1" parent="1" source="MxcCte-MyLLGNrgXoKtf-1" target="MxcCte-MyLLGNrgXoKtf-4">
          <mxGeometry relative="1" as="geometry">
            <Array as="points">
              <mxPoint x="380" y="300" />
              <mxPoint x="380" y="300" />
            </Array>
          </mxGeometry>
        </mxCell>
        <mxCell id="MxcCte-MyLLGNrgXoKtf-1" value="&lt;p style=&quot;margin:0px;margin-top:4px;text-align:center;&quot;&gt;&lt;b&gt;CopyInformation&lt;/b&gt;&lt;br&gt;&lt;/p&gt;&lt;hr size=&quot;1&quot;&gt;&lt;p style=&quot;margin:0px;margin-left:4px;&quot;&gt;- projectName: String&lt;/p&gt;&lt;p style=&quot;margin:0px;margin-left:4px;&quot;&gt;- viewName: String&lt;br&gt;&lt;/p&gt;&lt;p style=&quot;margin:0px;margin-left:4px;&quot;&gt;- viewOwner: BasicServiceInformation&lt;br&gt;&lt;/p&gt;&lt;p style=&quot;margin:0px;margin-left:4px;&quot;&gt;- scenePos: Point2DD&lt;/p&gt;&lt;p style=&quot;margin:0px;margin-left:4px;&quot;&gt;- scenePosSet: Boolean&lt;/p&gt;&lt;p style=&quot;margin:0px;margin-left:4px;&quot;&gt;- entities: CopyEntityInformation[*]&lt;/p&gt;&lt;hr size=&quot;1&quot;&gt;&lt;p style=&quot;margin:0px;margin-left:4px;&quot;&gt;&lt;i&gt;+ getCopyType(void): String&lt;/i&gt;&lt;/p&gt;&lt;p style=&quot;margin:0px;margin-left:4px;&quot;&gt;&lt;i&gt;+ getCopyVersion(void): int&lt;/i&gt;&lt;/p&gt;" style="verticalAlign=top;align=left;overflow=fill;fontSize=12;fontFamily=Helvetica;html=1;fillColor=#ffe6cc;strokeColor=#000000;" vertex="1" parent="1">
          <mxGeometry x="120" y="240" width="240" height="220" as="geometry" />
        </mxCell>
        <mxCell id="MxcCte-MyLLGNrgXoKtf-2" value="&lt;p style=&quot;margin:0px;margin-top:4px;text-align:center;&quot;&gt;&lt;b&gt;Serializable&lt;/b&gt;&lt;/p&gt;&lt;hr size=&quot;1&quot;&gt;&lt;p style=&quot;margin:0px;margin-left:4px;&quot;&gt;&lt;br&gt;&lt;/p&gt;&lt;hr size=&quot;1&quot;&gt;&lt;p style=&quot;margin:0px;margin-left:4px;&quot;&gt;&lt;br&gt;&lt;/p&gt;" style="verticalAlign=top;align=left;overflow=fill;fontSize=12;fontFamily=Helvetica;html=1;fillColor=#ffe6cc;strokeColor=#000000;" vertex="1" parent="1">
          <mxGeometry x="320" y="80" width="160" height="80" as="geometry" />
        </mxCell>
        <mxCell id="MxcCte-MyLLGNrgXoKtf-5" style="edgeStyle=orthogonalEdgeStyle;rounded=1;orthogonalLoop=1;jettySize=auto;html=1;curved=0;" edge="1" parent="1" source="MxcCte-MyLLGNrgXoKtf-4" target="MxcCte-MyLLGNrgXoKtf-2">
          <mxGeometry relative="1" as="geometry" />
        </mxCell>
        <mxCell id="MxcCte-MyLLGNrgXoKtf-4" value="&lt;p style=&quot;margin:0px;margin-top:4px;text-align:center;&quot;&gt;&lt;b&gt;CopyEntityInformation&lt;/b&gt;&lt;br&gt;&lt;/p&gt;&lt;hr size=&quot;1&quot;&gt;&lt;p style=&quot;margin:0px;margin-left:4px;&quot;&gt;- uid: UID&lt;/p&gt;&lt;p style=&quot;margin:0px;margin-left:4px;&quot;&gt;- name: String&lt;/p&gt;&lt;p style=&quot;margin:0px;margin-left:4px;&quot;&gt;- rawData: String&lt;/p&gt;&lt;hr size=&quot;1&quot;&gt;&lt;p style=&quot;margin:0px;margin-left:4px;&quot;&gt;&lt;br&gt;&lt;/p&gt;" style="verticalAlign=top;align=left;overflow=fill;fontSize=12;fontFamily=Helvetica;html=1;fillColor=#ffe6cc;strokeColor=#000000;" vertex="1" parent="1">
          <mxGeometry x="440" y="240" width="240" height="120" as="geometry" />
        </mxCell>
        <mxCell id="MxcCte-MyLLGNrgXoKtf-7" value="has" style="text;html=1;align=center;verticalAlign=middle;whiteSpace=wrap;rounded=0;fontStyle=2" vertex="1" parent="1">
          <mxGeometry x="370" y="280" width="60" height="20" as="geometry" />
        </mxCell>
        <mxCell id="MxcCte-MyLLGNrgXoKtf-8" value="*" style="text;html=1;align=center;verticalAlign=middle;whiteSpace=wrap;rounded=0;fontStyle=1" vertex="1" parent="1">
          <mxGeometry x="360" y="310" width="20" height="20" as="geometry" />
        </mxCell>
        <mxCell id="MxcCte-MyLLGNrgXoKtf-10" style="edgeStyle=orthogonalEdgeStyle;rounded=0;orthogonalLoop=1;jettySize=auto;html=1;endArrow=open;endFill=0;startFill=0;startArrow=none;" edge="1" parent="1" source="MxcCte-MyLLGNrgXoKtf-9" target="MxcCte-MyLLGNrgXoKtf-1">
          <mxGeometry relative="1" as="geometry">
            <Array as="points">
              <mxPoint x="400" y="430" />
              <mxPoint x="400" y="430" />
            </Array>
          </mxGeometry>
        </mxCell>
        <mxCell id="MxcCte-MyLLGNrgXoKtf-15" style="edgeStyle=orthogonalEdgeStyle;rounded=0;orthogonalLoop=1;jettySize=auto;html=1;dashed=1;dashPattern=8 8;endArrow=block;endFill=0;entryX=0.5;entryY=0;entryDx=0;entryDy=0;" edge="1" parent="1" source="MxcCte-MyLLGNrgXoKtf-9" target="MxcCte-MyLLGNrgXoKtf-17">
          <mxGeometry relative="1" as="geometry">
            <mxPoint x="560" y="560" as="targetPoint" />
            <Array as="points">
              <mxPoint x="540" y="590" />
              <mxPoint x="540" y="590" />
            </Array>
          </mxGeometry>
        </mxCell>
        <mxCell id="MxcCte-MyLLGNrgXoKtf-9" value="&lt;p style=&quot;margin:0px;margin-top:4px;text-align:center;&quot;&gt;&lt;b&gt;CopyInformationFactory&lt;/b&gt;&lt;/p&gt;&lt;hr size=&quot;1&quot;&gt;&lt;p style=&quot;margin:0px;margin-left:4px;&quot;&gt;&lt;br&gt;&lt;/p&gt;&lt;hr size=&quot;1&quot;&gt;&lt;p style=&quot;margin:0px;margin-left:4px;&quot;&gt;+ create(JsonObject): CopyInformation&lt;/p&gt;" style="verticalAlign=top;align=left;overflow=fill;fontSize=12;fontFamily=Helvetica;html=1;fillColor=#ffe6cc;strokeColor=#000000;" vertex="1" parent="1">
          <mxGeometry x="440" y="400" width="240" height="90" as="geometry" />
        </mxCell>
        <mxCell id="MxcCte-MyLLGNrgXoKtf-12" value="*" style="text;html=1;align=center;verticalAlign=middle;whiteSpace=wrap;rounded=0;fontStyle=1" vertex="1" parent="1">
          <mxGeometry x="420" y="430" width="20" height="20" as="geometry" />
        </mxCell>
        <mxCell id="MxcCte-MyLLGNrgXoKtf-13" value="creates" style="text;html=1;align=center;verticalAlign=middle;whiteSpace=wrap;rounded=0;fontStyle=2" vertex="1" parent="1">
          <mxGeometry x="370" y="410" width="60" height="20" as="geometry" />
        </mxCell>
        <mxCell id="MxcCte-MyLLGNrgXoKtf-16" value="&amp;nbsp;&lt;div&gt;&amp;nbsp; T: Type&lt;/div&gt;" style="rounded=1;whiteSpace=wrap;html=1;strokeColor=#000000;align=left;verticalAlign=top;fontFamily=Helvetica;fontSize=12;fontColor=default;fillColor=#ffe6cc;dashed=1;labelPosition=center;verticalLabelPosition=middle;" vertex="1" parent="1">
          <mxGeometry x="589.9999999999998" y="560" width="100" height="60" as="geometry" />
        </mxCell>
        <mxCell id="MxcCte-MyLLGNrgXoKtf-17" value="&lt;p style=&quot;margin:0px;margin-top:4px;text-align:center;&quot;&gt;&lt;b&gt;FactoryTemplate&lt;/b&gt;&lt;br&gt;&lt;/p&gt;&lt;hr size=&quot;1&quot;&gt;&lt;p style=&quot;margin:0px;margin-left:4px;&quot;&gt;- constructors: map&amp;lt;String, T()&amp;gt;&lt;/p&gt;&lt;hr size=&quot;1&quot;&gt;&lt;p style=&quot;margin:0px;margin-left:4px;&quot;&gt;&lt;br&gt;&lt;/p&gt;" style="verticalAlign=top;align=left;overflow=fill;fontSize=12;fontFamily=Helvetica;html=1;fillColor=#ffe6cc;strokeColor=#000000;fontColor=default;rounded=0;" vertex="1" parent="1">
          <mxGeometry x="440" y="600" width="200" height="80" as="geometry" />
        </mxCell>
        <mxCell id="MxcCte-MyLLGNrgXoKtf-18" value="bind&lt;br&gt;&amp;lt;T -&amp;gt; CopyInformation&amp;gt;" style="text;html=1;align=left;verticalAlign=middle;whiteSpace=wrap;rounded=0;fontStyle=2" vertex="1" parent="1">
          <mxGeometry x="550" y="520" width="140" height="30" as="geometry" />
        </mxCell>
        <mxCell id="MxcCte-MyLLGNrgXoKtf-20" value="OTCore" style="text;html=1;align=center;verticalAlign=middle;whiteSpace=wrap;rounded=0;fontSize=16;fontStyle=1" vertex="1" parent="1">
          <mxGeometry x="120" y="650" width="60" height="30" as="geometry" />
        </mxCell>
      </root>
    </mxGraphModel>
  </diagram>
</mxfile>
